<svg xmlns="http://www.w3.org/2000/svg" width="193.283" height="147.116" viewBox="0 0 193.283 147.116"><defs><style>.a{opacity:0.55;}.b{fill:#d1d3d4;opacity:0.31;}.c{fill:#bcbec0;opacity:0.48;}.d{fill:#d7df23;}.e{fill:#e4eaf8;}.f{fill:#ff5c5b;}.g{fill:#1f2677;}.h{fill:#ffcac5;}.i{fill:#ff6c6b;}.j{fill:#35c5a7;}.k{fill:#ffe1cb;}.l{fill:#844635;}.m{fill:#0f43a9;}.n{fill:none;}.o{fill:#96bcf4;}.p{fill:#fdb527;}.q{fill:#ef8216;}.r{fill:#bbdffd;}</style></defs><g transform="translate(-95.892 -15.578)"><g transform="translate(81.647 11.029) rotate(8)"><g class="a" transform="translate(32.681 0)"><g transform="translate(0 0)"><path class="b" d="M105.406,116.425a65.844,65.844,0,0,1-10.648,6.7c-32.265,16.257-71.565,3.452-87.781-28.6A64.427,64.427,0,0,1,0,65.025,65.34,65.34,0,0,1,36.042,7.054c32.267-16.261,71.567-3.455,87.78,28.6A65.029,65.029,0,0,1,105.406,116.425Z"/></g><path class="c" d="M115.915,55.028a50.1,50.1,0,0,1-2.154,7.085,40.054,40.054,0,0,1-5.733,10.04c-4.692,6.316-11.291,10.723-18.337,14.011a38.54,38.54,0,0,1-8.159,2.713,50.079,50.079,0,0,1-11.919,1.491,44.829,44.829,0,0,1-16.145-2.974A26.1,26.1,0,0,1,41.475,77.311a26.942,26.942,0,0,1-3.258-7.2A35.082,35.082,0,0,1,37.18,64.6a33,33,0,0,1,.2-5.3A22,22,0,0,1,39.524,51.9,20.818,20.818,0,0,1,43.813,45.8a28.733,28.733,0,0,1,8.823-5.962,25.487,25.487,0,0,1,7.25-1.8,13.642,13.642,0,0,1,2.291-.062,27.345,27.345,0,0,1,5.152.475,25.508,25.508,0,0,1,9.374,4.4c2.845,1.976,4.2,5.747,4.567,9.044a13.164,13.164,0,0,1-3.112,9.343,10.837,10.837,0,0,1-2.725,2.409,38.361,38.361,0,0,0,5.123-1.854,35.418,35.418,0,0,0,4.658-3.18,31.735,31.735,0,0,0,2.9-3.372,28.141,28.141,0,0,0,1.666-3.423,29.244,29.244,0,0,0,.735-3.766,30.4,30.4,0,0,0-.274-4.188,27.9,27.9,0,0,0-1.267-3.62,30.169,30.169,0,0,0-2.641-3.766A38.724,38.724,0,0,0,81.4,32.366a51.667,51.667,0,0,0-8.56-4.027.041.041,0,0,0-.025-.008A60.14,60.14,0,0,0,61.229,26.1a50.126,50.126,0,0,0-9.518.611A46.673,46.673,0,0,0,43.7,29.524a47.761,47.761,0,0,0-7.283,5,46.855,46.855,0,0,0-5.484,6.386,44.19,44.19,0,0,0-3.4,6.973,48.731,48.731,0,0,0-1.619,8.773,62.317,62.317,0,0,0,.889,12.881A65.535,65.535,0,0,0,31.369,82.52,67.512,67.512,0,0,0,39.527,94.3a67.35,67.35,0,0,0,10.442,8.863,66.028,66.028,0,0,0,11.887,5.68,69.009,69.009,0,0,0,13.834,2.645,69.258,69.258,0,0,0,14.5-1.026,94.652,94.652,0,0,0,15.219-5.121,65.844,65.844,0,0,1-10.648,6.7c-32.265,16.257-71.565,3.452-87.781-28.6A64.427,64.427,0,0,1,0,53.939Q.078,52.967.163,52A46.345,46.345,0,0,1,2.137,41.871,57.61,57.61,0,0,1,7.168,29.912,61.445,61.445,0,0,1,24.342,10.92,63.747,63.747,0,0,1,35.876,4.558,60.189,60.189,0,0,1,48.429.957,62.338,62.338,0,0,1,70.056.939,60.4,60.4,0,0,1,79.545,3.23,68.936,68.936,0,0,1,91.318,7.98c7.164,3.906,13.766,9.11,18.345,15.926a40.073,40.073,0,0,1,6.987,23.568A48.914,48.914,0,0,1,115.915,55.028Z" transform="translate(0 11.086)"/></g><path class="d" d="M1.7,0A1.82,1.82,0,0,0,0,1.931a1.874,1.874,0,0,0,1.92,1.757,1.819,1.819,0,0,0,1.7-1.93A1.874,1.874,0,0,0,1.7,0ZM1.8,2.78C1.028,2.768.319,2.467.542,1.566a1.135,1.135,0,0,1,2.24-.115A1,1,0,0,1,1.8,2.78Z" transform="translate(45.459 95.102)"/></g><g transform="translate(130.993 31.206)"><path class="e" d="M253.354,228.443c0,2.442-35.411,4.421-79.092,4.421s-79.091-1.98-79.091-4.421,35.411-4.421,79.091-4.421S253.354,226,253.354,228.443Z" transform="translate(-95.171 -107.553)"/><g transform="translate(13.086)"><g transform="translate(0 17.577)"><g transform="translate(27.121 51.805)"><path class="f" d="M215.108,214.06c1.908-1.036,5.234,2.78,7.2,4.36s5.4,2.453,8.394,2.453,4.851-.055,5.451,1.8c0,0,.872-.163,1.2,1.417s-2.563,4.7-9.594,4.7H201.918l-2.324-11.841Z" transform="translate(-131.857 -177.277)"/><path class="g" d="M134.067,227.825h8.757c2.518,0,20.813-3.437,35.262-21.862l23.062,14.319,9.815-9.678L184.27,182.036a11.236,11.236,0,0,0-15.81-.606l-20.054,18.412Z" transform="translate(-134.067 -178.471)"/><path class="h" d="M208.7,209.556c2.1,2.687,6.354,4.65,6.354,4.65s-8.656,4.482-13.813,2.7Z" transform="translate(-131.802 -177.423)"/></g><g transform="translate(45.51 34.163)"><path class="f" d="M167.648,187.238s-15.792.679-15.792,0V172.286l4.88-8.521,1.347-2.36c1.336,2.4,4.438,11.01,6.754,17.635C166.431,183.607,167.648,187.238,167.648,187.238Z" transform="translate(-151.856 -161.405)"/><path class="i" d="M164.338,177.987c-4.437,0-10.123-3.156-8.238-7.764l.505-6.458,1.347-2.36C159.288,163.807,162.021,171.362,164.338,177.987Z" transform="translate(-151.725 -161.405)"/><path class="f" d="M183.959,191.1s-9.993,7.231-9.935,7.059-8.1-8.56-8.1-8.56l13.583-5.733Z" transform="translate(-151.382 -160.648)"/><path class="h" d="M187.524,189.129c-.543,0-2.779,2.405-5.591,2.405s-4.4-2.671-4.02-5.887c.529-4.454,8.043-6.964,8.043-6.964Z" transform="translate(-150.979 -160.822)"/></g><path class="j" d="M182.485,160.71l-14.478,26.017a.388.388,0,0,0,.339.576h13.677a2.152,2.152,0,0,0,1.856-1.063l13.185-22.455a1.332,1.332,0,0,0-.9-1.982l-11.355-2.178A2.188,2.188,0,0,0,182.485,160.71Z" transform="translate(-105.803 -127.303)"/><g transform="translate(0 27.55)"><path class="i" d="M160.461,164.637a5.363,5.363,0,0,1-.98,2.909c-.01.01-.01.022-.022.032-10.349,15.96-7.953,28.106-5.5,34.065a2.967,2.967,0,0,1-2.767,4.07H123.716c-7.616,0-10.783,5.623-10.987,12.475a12.167,12.167,0,0,0,3.808,9.747c-5.727-3.72-7.945-14.671-8.537-23.923v-.065c-1.121-17.807,3.49-36.551,9.21-42.131,0,0,7.261-6.808,23.2-6.808C152.673,155.007,160.461,159.316,160.461,164.637Z" transform="translate(-107.831 -155.007)"/><path class="f" d="M154.279,177.41c-14.647,1.784-21.481-4.637-23.479-9.572l-1.747-4.312c-16.011,9.2-21.042,31.037-21.059,40.133v.065c.592,9.253,2.758,20.748,8.537,23.923a12.259,12.259,0,0,1-3.808-9.747c.2-6.852,3.371-12.475,10.987-12.475h27.457a2.978,2.978,0,0,0,2.776-4.09C152.045,196.706,150.188,188.363,154.279,177.41Z" transform="translate(-107.825 -154.72)"/></g><path class="k" d="M147.244,156.077c1.141,2.111-1.132,8.6-7.251,6.991a11.178,11.178,0,0,1-6.5-4.578c-.021-.01-.032-.022-.021-.032a6.553,6.553,0,0,1-.421-.657c-.054-.1-.1-.2-.14-.3a2.438,2.438,0,0,1,.517-2.617c3.555-3.76,7.412-12.765,7.412-12.765l7.723,9.189c-1.228,0-1.938,1.293-1.863,2.79A4.469,4.469,0,0,0,147.244,156.077Z" transform="translate(-106.991 -127.892)"/><path class="h" d="M148.568,151.3c-1.228,0-1.938,1.293-1.863,2.79-2.068-.894-8.924-3.126-7.9,1.681,1.054,4.929-3.329,5.268-5.311,2.715-.021-.01-.032-.022-.021-.032a3.429,3.429,0,0,1-.421-.657c-.054-.1-.1-.2-.14-.3a2.438,2.438,0,0,1,.517-2.617c3.555-3.76,7.412-12.765,7.412-12.765Z" transform="translate(-106.991 -127.892)"/><g transform="translate(30.737)"><path class="l" d="M137.721,145.392c.2-.3.639-.478.814-.8a2.324,2.324,0,0,0-.193-2.094,5.482,5.482,0,0,1-.775-2.041,1.392,1.392,0,0,1,1.306-1.5,1.652,1.652,0,0,1-.8-1.672,4.645,4.645,0,0,1,.746-1.787,4.794,4.794,0,0,0,.758-1.784c.088-.7-.144-1.409-.019-2.1a2.282,2.282,0,0,1,1.375-1.647,2.636,2.636,0,0,1,2.256.14,5.581,5.581,0,0,1,5.514-1.563c1.008.279,1.906.831,2.9,1.134.805.244,1.657.32,2.48.511a3.948,3.948,0,0,1,2.172,1.139,1.615,1.615,0,0,1,.048,2.153,1.144,1.144,0,0,1,1.672.61c.283.857-.1,2.452-2.336,3.481-.236.856-.9,1.179-1.744,1.591a3.761,3.761,0,0,1-2.781.178c-.769-.256-1.615-.763-2.321-.39a1.4,1.4,0,0,0-.615,1.381c.037.524.219,1.039.214,1.565a2.357,2.357,0,0,1-1.2,1.966,2.791,2.791,0,0,1-2.444.126,10.641,10.641,0,0,1-1.38-.88,2.2,2.2,0,0,0-1.568-.41,2.512,2.512,0,0,0-1.356,1.054c-.511.643-1.474,3-1.723,2.986C138.41,146.73,137.231,146.146,137.721,145.392Z" transform="translate(-137.565 -128.356)"/><path class="k" d="M142.523,141.031c-.048-.041-1-2.908-2.658-2.527-2.634.606-.721,5.72,1.769,5.835a7.658,7.658,0,0,0,3.787,6.28c3.88,2.394,7.978.11,9.4-5.881s.7-7.709.7-7.709-1.458,1.024-5.135-1.136c-4-2.345-4.909,1.314-4.619,3.645C146.166,142.744,142.523,141.031,142.523,141.031Z" transform="translate(-137.53 -128.127)"/></g><g transform="translate(73.997 50.177)"><path class="k" d="M185.064,181.26l-.066.025a.8.8,0,0,1-.979-.373h0a.794.794,0,0,1,.247-1.023l4-2.8a1.091,1.091,0,0,1,1.53.284l.279.413a1.091,1.091,0,0,1-.2,1.444l-1.146.965v.768l1.079.464a.441.441,0,0,1,.269.406v.74a.444.444,0,0,1-.11.292l-.276.314a.428.428,0,0,0,.078.632l.145.1a.614.614,0,0,1,.263.5v.735a.612.612,0,0,1-.317.538l-.716.395.159.047a.467.467,0,0,1,.335.448v1.1a.468.468,0,0,1-.136.329l-.578.58a2.036,2.036,0,0,1-1.444.6H183.5a1.524,1.524,0,0,1-1.362-.839l-.188-.374-1.142.446a1.019,1.019,0,0,1-1.313-.561h0a1.019,1.019,0,0,1,.4-1.252l2.287-1.4-.43.192a.983.983,0,0,1-1.293-.484l-.021-.043a.931.931,0,0,1,.382-1.2Z" transform="translate(-179.413 -176.896)"/><path class="h" d="M189.609,179.159l-2.468,1.452,1.322.282v-.768Z" transform="translate(-179.153 -176.82)"/></g><g transform="translate(4.891 49.438)"><path class="k" d="M175.275,214.7l8.959,5.915s4.191,1.813,9-7.476l-5.983-6.284Z" transform="translate(-110.447 -175.147)"/><path class="m" d="M115.8,208.065c-2.12,2.293-3.115,5.668-3.226,9.409a20.108,20.108,0,0,0,.081,2.37,11.234,11.234,0,0,0,11.2,10.212h10.944c10.7,0,13.829-10.423,19.854-27.283L177.39,215.73l14.734-8.853L164.678,180.7a16.362,16.362,0,0,0-23.1.509L115.8,208.067Z" transform="translate(-112.562 -176.181)"/><path class="g" d="M153.453,202l-5.515-2.854s4.464,5.805,2.136,12.24Z" transform="translate(-111.369 -175.407)"/><path class="i" d="M187.157,219.016a5.512,5.512,0,0,1-4.112.7l-4.674-3.087s-1.344,3.046-.693,9.22c0,0-1.429.112.431,3.021h39.718c1.183-3.023-.025-2.85-.025-2.85a5.12,5.12,0,0,0-1.957-2.822s-13.646-3.512-14.74-5.14c-1.7-2.528-5.432-6.173-6.932-6.664-2.326-.763-2.72,4.615-7.017,7.62Z" transform="translate(-110.384 -174.996)"/><path class="h" d="M175.275,214.682l14.145-5.57-1.774-1.863Z" transform="translate(-110.447 -175.133)"/></g><g transform="translate(8.126 31.844)"><path class="k" d="M175.537,186.268l-1-.869h-3.7l2.219-1.417.411.564.05.853h1.017l.6-1.318a.519.519,0,0,0,.044-.209v-.854a.5.5,0,0,0-.172-.379l-1.7-1.489a1.11,1.11,0,0,0-1.172-.186l-2.541,1.091-1.2-1.2a1.2,1.2,0,0,0-1.474-.18l-2.553,1.54a4.452,4.452,0,0,0-1.381,1.309l-1.527,2.246h-4.57c1.943,0,3.648,10.477,0,10.477h7.976c1.748,0,4.425-1.993,5.669-3a1.824,1.824,0,0,0,.678-1.414V190.7h2.106a.852.852,0,0,0,.853-.852v-.706a.853.853,0,0,0-.765-.848l-1.178-.121h1.943l.785-.079a1.044,1.044,0,0,0,.583-1.826Z" transform="translate(-114.303 -158.441)"/><path class="h" d="M169.32,182.043l-4.24,1.778,3.038-2.981Z" transform="translate(-114.026 -158.43)"/><path class="n" d="M172.605,183.868l-2.219,1.417h2.68l-.049-.852Z" transform="translate(-113.847 -158.328)"/><path class="i" d="M158.277,186.487l-20.7-1.139-8.779-21.675a6.737,6.737,0,0,0-12.762,4.321l8.484,22.758a9.546,9.546,0,0,0,8.946,6.212h24.817C161.925,196.964,160.221,186.487,158.277,186.487Z" transform="translate(-115.692 -159.161)"/></g></g><g transform="translate(53.295)"><g transform="translate(6.021)"><path class="o" d="M195.386,116.993c-.017,0-.031,0-.048,0a5.7,5.7,0,0,0-5.33-4.645,5.806,5.806,0,0,0-5.459,5.3,8.7,8.7,0,0,0-6.55-3.1c-5.112,0-9.257,4.717-9.259,10.539a11.462,11.462,0,0,0,1.852,6.312,12.49,12.49,0,0,0-5.383,10.146c0,7.061,6.118,12.787,13.669,12.789a14.439,14.439,0,0,0,4.88-.852,16.79,16.79,0,0,0,11.613,4.8c10.014,0,18.135-9.239,18.139-20.644S205.4,117,195.386,116.993Z" transform="translate(-165.211 -111.318)"/><path class="e" d="M195.386,115.993c-.016,0-.031,0-.048,0a5.7,5.7,0,0,0-5.33-4.645,5.8,5.8,0,0,0-5.458,5.3,8.705,8.705,0,0,0-6.551-3.1c-5.112,0-9.257,4.717-9.259,10.539a11.456,11.456,0,0,0,1.852,6.311,12.492,12.492,0,0,0-5.382,10.147c0,7.061,6.117,12.787,13.668,12.789a14.434,14.434,0,0,0,4.88-.852,16.79,16.79,0,0,0,11.613,4.8c10.014,0,18.135-9.239,18.139-20.644S205.4,116,195.386,115.993Z" transform="translate(-165.211 -111.352)"/></g><g transform="translate(15.664 8.702)"><path class="p" d="M175.52,135.688l15.2-13.825a2.988,2.988,0,0,1,4.423.422,28.886,28.886,0,0,1,4.873,22.59,2.97,2.97,0,0,1-3.837,2.181l-19.565-6.308A2.991,2.991,0,0,1,175.52,135.688Z" transform="translate(-174.54 -119.726)"/><path class="q" d="M190.779,122.384a1.7,1.7,0,0,1,1.327-2.614,2.912,2.912,0,0,1,2.494,1.5,34.494,34.494,0,0,1,5.347,12.024,32.269,32.269,0,0,1,.093,13.2,3.208,3.208,0,0,1-1.692,2.22,1.713,1.713,0,0,1-2.447-1.658C196.154,142.538,196.2,130.814,190.779,122.384Z" transform="translate(-174.001 -119.77)"/><path class="f" d="M193.328,137.4a3.227,3.227,0,1,1-4.56-.216A3.228,3.228,0,0,1,193.328,137.4Z" transform="translate(-174.095 -119.211)"/><path class="f" d="M190.752,129.108a2.769,2.769,0,1,1-3.913-.186A2.77,2.77,0,0,1,190.752,129.108Z" transform="translate(-174.156 -119.485)"/><path class="f" d="M184.261,133.571a3.051,3.051,0,1,1-4.31-.2A3.052,3.052,0,0,1,184.261,133.571Z" transform="translate(-174.391 -119.338)"/><path class="j" d="M184.429,140.251c-.453-2.226,1.581-2.8,2.451-4.1C186.88,136.152,188.292,139.489,184.429,140.251Z" transform="translate(-174.208 -119.217)"/><path class="j" d="M193.49,133.958c-.868,1.37-2.2.658-3.29.9A2.055,2.055,0,0,1,193.49,133.958Z" transform="translate(-174.012 -119.308)"/><path class="j" d="M183.3,129.456c1.541.508,1.177,1.972,1.675,2.972A2.056,2.056,0,0,1,183.3,129.456Z" transform="translate(-174.251 -119.443)"/><path class="j" d="M176.712,135.445c1.541.508,1.176,1.971,1.675,2.972A2.056,2.056,0,0,1,176.712,135.445Z" transform="translate(-174.473 -119.241)"/><path class="j" d="M191.62,126.118c-1.228,1.938-3.112.932-4.655,1.268C186.965,127.387,188.273,123.968,191.62,126.118Z" transform="translate(-174.121 -119.58)"/><path class="r" d="M188.9,137.582a1.771,1.771,0,1,0-2.758-2.221l-.344-.277a2.212,2.212,0,1,1,3.445,2.776Z" transform="translate(-174.16 -119.281)"/><path class="r" d="M188.731,129.354a2.047,2.047,0,0,0,4.085.278l.508.035a2.557,2.557,0,1,1-5.1-.347Z" transform="translate(-174.079 -119.448)"/><path class="r" d="M183.992,131.916a2.047,2.047,0,1,0-.875,4l-.11.5a2.557,2.557,0,0,1,1.093-5Z" transform="translate(-174.322 -119.379)"/></g><g transform="translate(0 16.153)"><g transform="translate(0 1.034)"><path class="o" d="M162.683,136.526a1.678,1.678,0,0,1-2.055,1.172,1.66,1.66,0,0,1-1.183-2.036,1.678,1.678,0,0,1,2.055-1.172A1.66,1.66,0,0,1,162.683,136.526Z" transform="translate(-159.387 -127.761)"/><path class="o" d="M166.344,133.213a2.034,2.034,0,1,1-1.436-2.473A2.014,2.014,0,0,1,166.344,133.213Z" transform="translate(-159.287 -127.888)"/><path class="o" d="M172.076,130.97a2.4,2.4,0,0,1-2.936,1.675,2.371,2.371,0,0,1-1.689-2.909,2.4,2.4,0,0,1,2.936-1.675A2.371,2.371,0,0,1,172.076,130.97Z" transform="translate(-159.118 -127.979)"/></g><path class="e" d="M162.683,135.526a1.678,1.678,0,0,1-2.055,1.172,1.66,1.66,0,0,1-1.183-2.036,1.678,1.678,0,0,1,2.055-1.172A1.66,1.66,0,0,1,162.683,135.526Z" transform="translate(-159.387 -126.761)"/><path class="e" d="M166.344,132.213a2.034,2.034,0,1,1-1.436-2.473A2.014,2.014,0,0,1,166.344,132.213Z" transform="translate(-159.287 -126.888)"/><path class="e" d="M172.076,129.97a2.4,2.4,0,0,1-2.936,1.675,2.371,2.371,0,0,1-1.689-2.909,2.4,2.4,0,0,1,2.936-1.675A2.371,2.371,0,0,1,172.076,129.97Z" transform="translate(-159.118 -126.978)"/></g></g></g></g></g></svg>