<svg xmlns="http://www.w3.org/2000/svg" width="328.509" height="190.335" viewBox="0 0 328.509 190.335"><defs><style>.a,.j{fill:#e8e8e8;}.a,.b,.k{fill-rule:evenodd;}.b{fill:#2d2e85;}.c{fill:#656565;}.d{fill:#c00037;}.e{fill:#ccc;}.f{fill:#e8e7ef;}.g,.k{fill:#fff;}.h{fill:#a1a1a1;}.i{fill:#e2e8f0;}</style></defs><g transform="translate(-48.245 -73.991)"><path class="a" d="M495.525,561.072q-2.511-2.863-4.832-5.894A12.967,12.967,0,0,0,480.4,550.1c-7.783-.008-19.661-.008-19.661-.008A14.039,14.039,0,0,1,446.7,536.05h0a14.039,14.039,0,0,1,14.039-14.039H505.1a14.039,14.039,0,0,0,14.039-14.039h0A14.039,14.039,0,0,0,505.1,493.934H431.539A14.039,14.039,0,0,1,417.5,479.895h0a14.039,14.039,0,0,1,14.039-14.039h50.54a14.039,14.039,0,0,0,14.039-14.039h0a14.039,14.039,0,0,0-14.039-14.039H454.562a14.039,14.039,0,0,1-14.039-14.039h0A14.039,14.039,0,0,1,454.562,409.7h36.089a12.974,12.974,0,0,0,9.315-3.944,114.222,114.222,0,0,1,181.817,25.277,12.963,12.963,0,0,0,11.368,6.733c8.527.011,20.849.011,20.849.011a14.039,14.039,0,0,1,14.039,14.039h0A14.039,14.039,0,0,1,714,465.856H686.485a14.039,14.039,0,0,0-14.039,14.039h0a14.039,14.039,0,0,0,14.039,14.039h45.486a14.039,14.039,0,0,1,14.039,14.039h0a14.039,14.039,0,0,1-14.039,14.039H698.835a12.974,12.974,0,0,0-11.959,7.943,114.324,114.324,0,0,1-19.459,31.118Z" transform="translate(-369.255 -297.524)"/><path class="b" d="M1743.831,2190.285H1578.278a.778.778,0,1,0,0,1.557h165.552a.778.778,0,1,0,0-1.557Z" transform="translate(-1408.853 -1927.515)"/><path class="b" d="M915.534,2190.285H848.043a.778.778,0,1,0,0,1.557h67.491a.778.778,0,1,0,0-1.557Z" transform="translate(-754.412 -1927.515)"/><path class="c" d="M1262.844,1419.338a2.432,2.432,0,0,0,.691-.1,2.35,2.35,0,0,0,1.557-2.935l-3.418-11.117a2.348,2.348,0,0,0-2.241-1.662H1222.1a2.349,2.349,0,1,0,0,4.7H1257.7l2.906,9.46A2.341,2.341,0,0,0,1262.844,1419.338Z" transform="translate(-1088.24 -1222.417)"/><path class="d" d="M1568.857,1545.611l-28.763-.838-15.714-44.908h29.363l15.114,45.746Z" transform="translate(-1361.247 -1308.757)"/><path class="e" d="M2112.673,1974.545c0,14.928-8.787,22.395-19.629,22.395s-19.629-7.468-19.629-22.395Z" transform="translate(-1853.295 -1734.168)"/><path class="e" d="M1187.673,1974.545c0,14.928-8.787,22.395-19.629,22.395s-19.63-7.468-19.63-22.395Z" transform="translate(-1024.305 -1734.168)"/><path class="c" d="M2282.164,1974.545c0,14.928-8.787,22.395-19.629,22.395l14.3-.369c10.844,0,18.544-7.1,18.544-22.026Z" transform="translate(-2022.785 -1734.168)"/><path class="c" d="M1357.163,1974.545c0,14.928-8.787,22.395-19.629,22.395l14.3-.369c10.844,0,18.544-7.1,18.544-22.026Z" transform="translate(-1193.795 -1734.168)"/><path class="f" d="M2141.275,1975.019c0,9.769,4.578,15.353,12.586,15.353,7.984,0,12.585-5.585,12.585-15.353a4.585,4.585,0,0,0-.023-.564H2141.3a4.357,4.357,0,0,0-.024.564Z" transform="translate(-1914.111 -1734.087)"/><path class="f" d="M1216.275,1975.019c0,9.769,4.578,15.353,12.586,15.353,7.984,0,12.585-5.585,12.585-15.353a4.561,4.561,0,0,0-.023-.564H1216.3a4.379,4.379,0,0,0-.024.564Z" transform="translate(-1085.121 -1734.087)"/><path class="c" d="M2300.862,1137.245h11.2a2.348,2.348,0,0,0,0-4.7h-11.2a2.348,2.348,0,0,0,0,4.7Z" transform="translate(-2055.031 -979.567)"/><path class="b" d="M2328.734,1128.178a3.125,3.125,0,0,0-3.126-3.128h-11.2a.778.778,0,1,0,0,1.557h11.2a1.569,1.569,0,0,1,1.569,1.572.779.779,0,0,0,1.557,0Z" transform="translate(-2068.577 -972.846)"/><path class="e" d="M2187.594,1109.191v-3.986c0-2.191-2.114-3.986-4.7-3.986h-6.862c-2.582,0-4.7,1.794-4.7,3.986v3.986Z" transform="translate(-1941.056 -951.489)"/><path class="b" d="M2180.094,1101.691v-3.207a2.971,2.971,0,0,0-1.24-2.331.779.779,0,1,1,.951-1.233,4.514,4.514,0,0,1,1.846,3.563v3.986a.779.779,0,0,1-.778.778h-16.254a.779.779,0,0,1-.779-.778v-3.986c0-2.583,2.432-4.764,5.475-4.764h4.07a.778.778,0,0,1,0,1.557h-4.07c-2.122,0-3.918,1.406-3.918,3.207v3.207Z" transform="translate(-1934.334 -944.768)"/><path class="c" d="M2044.834,1137.245h11.2a2.348,2.348,0,0,0,0-4.7h-11.2a2.348,2.348,0,1,0,0,4.7Z" transform="translate(-1825.575 -979.567)"/><path class="b" d="M2052.435,1128.178a3.128,3.128,0,0,0-3.125-3.128h-11.2a3.126,3.126,0,1,0,0,6.252.778.778,0,1,0,0-1.557,1.569,1.569,0,1,1,0-3.138h11.2a1.57,1.57,0,0,1,1.568,1.572.778.778,0,1,0,1.557,0Z" transform="translate(-1818.854 -972.846)"/><path class="d" d="M1762.071,1591.556s-8.655.835-15.186-1.349-8.4-28.3-5.911-35.142H1722.4c-2.491,6.841-.624,32.965,5.906,35.142s15.191,1.349,15.191,1.349Z" transform="translate(-1537.762 -1358.228)"/><path class="d" d="M2021.576,1240.418s12.435-61.818,0-74.545c-4.018-4.119-13.381-10.478-22.741-10.478s-18.728,6.359-22.748,10.478c-7.421,7.6-5.984,30.238-3.62,47.265,1.6,11.5,3.62,27.28,3.62,27.28h45.489Z" transform="translate(-1761.116 -1000.041)"/><path class="b" d="M2020.184,1382.239c1.1-5.633,8.992-47.876,3.452-66.731a.778.778,0,0,1,1.494-.439c6.008,20.447-3.542,68.1-3.542,68.1a.778.778,0,0,1-.785.624h-45.467a.779.779,0,0,1-.772-.679s-2.023-15.772-3.619-27.272c-.461-3.32-.887-6.854-1.219-10.447a.778.778,0,0,1,1.55-.144c.33,3.569.753,7.079,1.211,10.377,1.4,10.091,3.129,23.47,3.533,26.608Z" transform="translate(-1760.365 -1142.641)"/><path class="b" d="M2018.764,1158.608c-4.115-4.218-13.712-10.713-23.3-10.713s-19.188,6.495-23.305,10.713c-3.029,3.1-4.679,8.615-5.355,15.255a.779.779,0,0,0,1.549.158c.633-6.22,2.082-11.418,4.92-14.325,3.923-4.019,13.055-10.243,22.191-10.243s18.263,6.224,22.184,10.243a.778.778,0,0,0,1.115-1.087Z" transform="translate(-1757.747 -993.32)"/><path class="g" d="M2171.345,1320.805c0,6.357,4.613,11.512,10.3,11.512s10.305-5.155,10.305-11.512-4.613-11.505-10.305-11.505S2171.345,1314.454,2171.345,1320.805Z" transform="translate(-1941.06 -1137.972)"/><path class="e" d="M1602.46,1444.93h29.8a4.713,4.713,0,0,0,4.7-4.7v-3.361a4.712,4.712,0,0,0-4.7-4.7h-29.8v12.755Z" transform="translate(-1431.223 -1248.093)"/><path class="b" d="M1793.169,1433.51v-3.361a5.493,5.493,0,0,0-5.476-5.474h-11.02a.778.778,0,1,0,0,1.557h11.02a3.931,3.931,0,0,1,3.919,3.917v3.361a.778.778,0,1,0,1.557,0Z" transform="translate(-1586.656 -1241.371)"/><path class="h" d="M1459.65,1440.226a4.71,4.71,0,0,1-4.7,4.7h-25.1a4.711,4.711,0,0,1-4.7-4.7v-3.362a4.71,4.71,0,0,1,4.7-4.7h25.1a4.71,4.71,0,0,1,4.7,4.7v3.361Z" transform="translate(-1272.321 -1248.089)"/><path class="b" d="M1419.212,1430.144a3.929,3.929,0,0,1,3.919-3.917h25.1a3.914,3.914,0,0,1,2.962,1.361.778.778,0,0,0,1.177-1.019,5.466,5.466,0,0,0-4.139-1.9h-25.1a5.491,5.491,0,0,0-5.476,5.474.779.779,0,0,0,1.557,0Z" transform="translate(-1265.599 -1241.367)"/><path class="b" d="M1553.626,1519.665a3.933,3.933,0,0,1-3.634,2.46h-18.014a.778.778,0,1,0,0,1.557h18.014a5.492,5.492,0,0,0,5.077-3.432.779.779,0,0,0-1.443-.584Z" transform="translate(-1367.359 -1326.066)"/><path class="c" d="M991.993,1419.338a2.425,2.425,0,0,0,.69-.1,2.349,2.349,0,0,0,1.557-2.935l-3.416-11.117a2.352,2.352,0,0,0-2.244-1.662H951.253a2.349,2.349,0,0,0,0,4.7h35.591l2.905,9.46a2.345,2.345,0,0,0,2.243,1.655Z" transform="translate(-845.503 -1222.417)"/><path class="b" d="M979.547,1402.28H944.532a3.127,3.127,0,0,1,0-6.255.778.778,0,1,1,0,1.557,1.57,1.57,0,0,0,0,3.141h35.591a.779.779,0,0,1,.744.55l.994,3.237a.779.779,0,0,1-1.488.457l-.826-2.687Z" transform="translate(-838.781 -1215.695)"/><path class="b" d="M1350.207,1423.7l-3.416-11.117a.779.779,0,1,0-1.488.458l3.416,11.117a.779.779,0,0,0,1.489-.458Z" transform="translate(-1200.726 -1230.042)"/><path class="b" d="M1355.363,1441.142h7.785a.778.778,0,1,0,0-1.557h-7.785a.778.778,0,1,0,0,1.557Z" transform="translate(-1209.076 -1254.734)"/><path class="i" d="M1236.38,1022.2h37.292a4.71,4.71,0,0,0,4.7-4.694V982.733a4.711,4.711,0,0,0-4.7-4.7H1236.38V1022.2Z" transform="translate(-1103.14 -841.09)"/><path class="e" d="M1047.612,1017.5a4.709,4.709,0,0,1-4.7,4.694h-32.6a4.709,4.709,0,0,1-4.7-4.694V982.733a4.71,4.71,0,0,1,4.7-4.7h32.6a4.711,4.711,0,0,1,4.7,4.7Z" transform="translate(-896.331 -841.09)"/><path class="h" d="M2042.485,1728.787c0-18.979,13.26-28.462,29.628-28.462s29.626,9.484,29.626,28.462Z" transform="translate(-1825.575 -1488.411)"/><path class="c" d="M2042.485,1750.606c0-14.23,8.785-25.936,19.633-25.936s19.631,8.642,19.631,25.936Z" transform="translate(-1825.575 -1510.229)"/><path class="b" d="M2074.242,1743.106a43.151,43.151,0,0,0-.351-4.937.779.779,0,0,1,1.544-.2,45.557,45.557,0,0,1,.37,5.918.779.779,0,0,1-.778.778h-39.264a.779.779,0,0,1-.778-.778c0-14.708,9.2-26.714,20.411-26.714a18.523,18.523,0,0,1,10.414,3.062.778.778,0,0,1-.865,1.294,16.982,16.982,0,0,0-9.549-2.8c-10.286,0-18.537,10.977-18.845,24.379Z" transform="translate(-1818.854 -1503.507)"/><path class="h" d="M970.555,1577.091c0-30.69,26.582-46.031,49.142-46.031s32.537,15.341,32.537,46.031Z" transform="translate(-864.906 -1336.714)"/><path class="b" d="M1171.268,1533.285c5.894-4.522,19.1-8.168,27.187-8.168,8.291,0,14.845,2.1,19.785,6.358a.778.778,0,1,0,1.016-1.18c-5.2-4.476-12.079-6.735-20.8-6.735-8.371,0-22.034,3.809-28.135,8.49a.778.778,0,0,0,.948,1.235Z" transform="translate(-1043.664 -1329.993)"/><path class="b" d="M1732.219,1776.815a85.164,85.164,0,0,1,1.749,15.08.778.778,0,0,0,1.556-.056,86.711,86.711,0,0,0-1.784-15.357.779.779,0,0,0-1.521.333Z" transform="translate(-1547.497 -1556.115)"/><rect class="c" width="55.05" height="7.049" transform="translate(159.92 233.328)"/><path class="c" d="M970.555,1612.375c0-23.013,19.677-41.945,34.63-41.945s27.058,13.975,27.058,41.945Z" transform="translate(-864.906 -1371.998)"/><path class="b" d="M964.62,1604.875h22.769a.778.778,0,1,1,0,1.557H963.833a.779.779,0,0,1-.779-.778c0-14.047,7.2-26.6,16.251-34.4,6.089-5.244,13.017-8.325,19.158-8.325a22.724,22.724,0,0,1,11.011,2.774.778.778,0,1,1-.747,1.366,21.186,21.186,0,0,0-10.264-2.583c-5.822,0-12.368,2.976-18.142,7.948-8.574,7.384-15.442,19.187-15.7,32.44Z" transform="translate(-858.184 -1365.276)"/><path class="b" d="M1551.134,1865.406a82.256,82.256,0,0,1,.644,10.541.778.778,0,0,0,1.557,0,83.841,83.841,0,0,0-.656-10.741.779.779,0,0,0-1.544.2Z" transform="translate(-1385.218 -1635.569)"/><rect class="c" width="16.857" height="6.742" transform="translate(121.856 136.945)"/><rect class="c" width="10.298" height="6.742" transform="translate(156.088 136.945)"/><path class="b" d="M2105.173,1967.823c0,7.221-2.1,12.647-5.534,16.258a19.226,19.226,0,0,1-26.632,0c-3.437-3.611-5.535-9.037-5.535-16.258a.778.778,0,0,0-1.557,0c0,7.706,2.3,13.478,5.964,17.332a20.778,20.778,0,0,0,28.888,0c3.668-3.854,5.964-9.625,5.964-17.332a.778.778,0,0,0-1.557,0Z" transform="translate(-1846.573 -1727.446)"/><path class="b" d="M1180.173,1967.823c0,7.221-2.1,12.647-5.534,16.258a19.226,19.226,0,0,1-26.632,0c-3.437-3.611-5.535-9.037-5.535-16.258a.778.778,0,0,0-1.557,0c0,7.706,2.3,13.478,5.964,17.332a20.778,20.778,0,0,0,28.888,0c3.667-3.854,5.964-9.625,5.964-17.332a.778.778,0,0,0-1.557,0Z" transform="translate(-1017.583 -1727.446)"/><path class="b" d="M2393.619,1990.628c5.66,0,10.492-1.872,13.917-5.673,3.385-3.757,5.406-9.429,5.406-17.132a.778.778,0,0,0-1.557,0c0,7.225-1.83,12.565-5.005,16.09-3.136,3.481-7.576,5.158-12.76,5.158a.778.778,0,1,0,0,1.557Z" transform="translate(-2139.565 -1727.446)"/><path class="b" d="M1468.618,1990.628c5.66,0,10.492-1.872,13.917-5.673,3.385-3.757,5.406-9.429,5.406-17.132a.779.779,0,0,0-1.557,0c0,7.225-1.83,12.565-5.005,16.09-3.136,3.481-7.576,5.158-12.76,5.158a.778.778,0,1,0,0,1.557Z" transform="translate(-1310.575 -1727.446)"/><path class="b" d="M2094.231,1721.287c-.243-12.221-6.224-20.289-14.991-24.175a.778.778,0,0,1,.631-1.423c9.472,4.2,15.924,12.979,15.924,26.376a.779.779,0,0,1-.779.778h-59.254a.779.779,0,0,1-.778-.778c0-9.753,3.429-17.057,8.939-21.931,5.494-4.862,13.08-7.31,21.468-7.31a39.594,39.594,0,0,1,7.036.612.778.778,0,1,1-.277,1.532,38.086,38.086,0,0,0-6.76-.587c-7.98,0-15.209,2.294-20.436,6.919-5.065,4.481-8.231,11.148-8.406,19.987Z" transform="translate(-1818.854 -1481.689)"/><path class="b" d="M1661.711,1549.122h-26.872a.779.779,0,0,1,0-1.557h27.917a.778.778,0,0,1,.731,1.045c-1.712,4.705-1.29,18.692,1.3,27.4a17.437,17.437,0,0,0,2.357,5.272,3.865,3.865,0,0,0,1.772,1.469.778.778,0,1,1-.492,1.477,5.388,5.388,0,0,1-2.53-2.018,19.012,19.012,0,0,1-2.6-5.757c-2.508-8.438-2.985-21.677-1.58-27.327Z" transform="translate(-1459.543 -1351.506)"/><path class="b" d="M1361.7,1968.6h29.418a.778.778,0,1,0,0-1.557H1361.7a.778.778,0,1,0,0,1.557Z" transform="translate(-1214.758 -1727.446)"/><path class="b" d="M1782.6,1910.663l-.785-5.644a.779.779,0,1,1,1.542-.215l.908,6.53a.779.779,0,0,1-.771.886h-27.053a.778.778,0,1,1,0-1.557Z" transform="translate(-1568.526 -1671.064)"/><path class="b" d="M1040.112,1227.055a3.928,3.928,0,0,1-3.919,3.915h-32.6a3.928,3.928,0,0,1-3.918-3.915v-14.422a.778.778,0,0,0-1.557,0v14.422a5.489,5.489,0,0,0,5.475,5.472h32.6a5.489,5.489,0,0,0,5.476-5.472.778.778,0,1,0-1.557,0Z" transform="translate(-889.61 -1050.641)"/><path class="b" d="M999.677,980.276v-4.264a3.929,3.929,0,0,1,3.918-3.919h32.6a3.93,3.93,0,0,1,3.919,3.919.778.778,0,1,0,1.557,0,5.492,5.492,0,0,0-5.476-5.476h-32.6a5.49,5.49,0,0,0-5.475,5.476v4.264a.778.778,0,0,0,1.557,0Z" transform="translate(-889.61 -834.369)"/><path class="b" d="M1364.113,1304.233h23.336a5.491,5.491,0,0,0,5.476-5.472v-6.117a.779.779,0,1,0-1.557,0v6.117a3.929,3.929,0,0,1-3.919,3.916h-23.336a.778.778,0,0,0,0,1.557Z" transform="translate(-1216.917 -1122.346)"/><path class="b" d="M1466.755,995.291v-19.28a5.492,5.492,0,0,0-5.476-5.476h-14.786a.778.778,0,0,0,0,1.557h14.786a3.93,3.93,0,0,1,3.919,3.919v19.28a.778.778,0,1,0,1.557,0Z" transform="translate(-1290.747 -834.369)"/><path class="j" d="M2627.585,668.358a36.52,36.52,0,0,0,4.753,19.044c1.83,3.225-8.447,17.45-5.759,19.972s18.342-6.653,21.7-5.018a36.716,36.716,0,1,0-20.694-34Z" transform="translate(-2348.639 -531.508)"/><path class="b" d="M2646.562,640.682A37.506,37.506,0,0,0,2624.976,695a1.855,1.855,0,0,1,.084,1.113,11.067,11.067,0,0,1-.569,2.153c-.908,2.574-2.6,5.863-3.915,8.814a23.011,23.011,0,0,0-1.85,5.38,2.986,2.986,0,0,0,.635,2.7,2.905,2.905,0,0,0,2.013.653,22.608,22.608,0,0,0,6.617-1.635c3.231-1.159,6.83-2.668,9.626-3.476a12.309,12.309,0,0,1,2.725-.542,1.962,1.962,0,0,1,.91.114,37.349,37.349,0,0,0,15.38,3.725.778.778,0,1,0,.039-1.556,35.806,35.806,0,0,1-14.739-3.569,5.568,5.568,0,0,0-3.367-.023c-2.95.647-7.28,2.492-11.1,3.862a26.235,26.235,0,0,1-5.468,1.51,4.069,4.069,0,0,1-1.089-.005.918.918,0,0,1-.482-.193.682.682,0,0,1-.175-.39,3,3,0,0,1,.016-.948,21.435,21.435,0,0,1,1.731-4.969c1.559-3.5,3.635-7.48,4.365-10.219a4.561,4.561,0,0,0-.033-3.263,35.949,35.949,0,0,1,20.69-52.062.778.778,0,1,0-.458-1.488Z" transform="translate(-2341.954 -538.722)"/><path class="b" d="M3021.875,689.012a37.487,37.487,0,0,0-25.733-63.789.778.778,0,1,0-.04,1.556,35.929,35.929,0,0,1,24.664,61.139.779.779,0,0,0,1.109,1.094Z" transform="translate(-2679.531 -524.897)"/><path class="c" d="M2767.345,856.951a1.438,1.438,0,0,0,1.433,1.433h36.363a1.438,1.438,0,0,0,1.434-1.433V825.918a1.438,1.438,0,0,0-1.434-1.433h-36.363a1.438,1.438,0,0,0-1.433,1.433Z" transform="translate(-2475.199 -703.478)"/><path class="g" d="M2912.436,824.485V834.6c0,1.8-1.072,2.266-2.383,1.024l-.872-.825a3.521,3.521,0,0,0-4.767,0l-.872.825c-1.309,1.241-2.383.777-2.383-1.024V824.485Z" transform="translate(-2595.125 -703.478)"/><path class="d" d="M3027.8,995.926a12.1,12.1,0,1,1-12.1-12.1,12.1,12.1,0,0,1,12.1,12.1Z" transform="translate(-2686.936 -846.284)"/><path class="k" d="M3059.28,1053.815l4.9-5.931a1.792,1.792,0,0,1,2.764,2.281l-6.15,7.452a1.792,1.792,0,0,1-2.649.127l-4.1-4.1a1.792,1.792,0,1,1,2.534-2.535l2.707,2.706Z" transform="translate(-2731.665 -903.106)"/><path class="d" d="M1877.595,583.606c0,8.251,10.26,31.481,14.94,31.481,4.954,0,14.944-23.23,14.944-31.481a14.942,14.942,0,0,0-29.884,0Z" transform="translate(-1677.8 -474.21)"/><path class="b" d="M1986.72,588.592c1.624-4.623,2.683-8.972,2.683-11.707a15.732,15.732,0,0,0-20.733-14.9.778.778,0,1,0,.5,1.475,14.176,14.176,0,0,1,18.68,13.427c0,2.616-1.042,6.77-2.595,11.192a.778.778,0,1,0,1.469.516Z" transform="translate(-1758.946 -467.489)"/><path class="b" d="M1873.3,618.353a15.651,15.651,0,0,0-3.2,9.508c0,5.864,5.076,19.193,9.769,26.655a20.8,20.8,0,0,0,3.541,4.477,3.886,3.886,0,0,0,2.409,1.128,4.17,4.17,0,0,0,2.609-1.235,22.134,22.134,0,0,0,3.8-4.915.778.778,0,1,0-1.329-.811,20.62,20.62,0,0,1-3.5,4.558,2.684,2.684,0,0,1-1.581.846,2.4,2.4,0,0,1-1.388-.747,19.228,19.228,0,0,1-3.244-4.129c-4.55-7.237-9.53-20.14-9.53-25.827a14.1,14.1,0,0,1,2.883-8.566.778.778,0,1,0-1.239-.942Z" transform="translate(-1671.078 -518.466)"/><path class="g" d="M1967.51,656.591a5.609,5.609,0,1,0,5.608-5.611A5.612,5.612,0,0,0,1967.51,656.591Z" transform="translate(-1758.382 -547.982)"/></g></svg>